<svg width="34" height="35" viewBox="0 0 34 35" fill="none" xmlns="http://www.w3.org/2000/svg">
<rect y="0.233398" width="34" height="34" rx="17" fill="#F0F0F0"/>
<g clip-path="url(#clip0_50_4778)">
<path d="M17.0033 13.1907C14.7319 13.1907 12.8997 14.9942 12.8997 17.2302C12.8997 19.4661 14.7319 21.2696 17.0033 21.2696C19.2747 21.2696 21.1069 19.4661 21.1069 17.2302C21.1069 14.9942 19.2747 13.1907 17.0033 13.1907ZM17.0033 19.8563C15.5355 19.8563 14.3355 18.6786 14.3355 17.2302C14.3355 15.7817 15.5319 14.604 17.0033 14.604C18.4747 14.604 19.6712 15.7817 19.6712 17.2302C19.6712 18.6786 18.4712 19.8563 17.0033 19.8563ZM22.2319 13.0255C22.2319 13.5493 21.8033 13.9677 21.2747 13.9677C20.7426 13.9677 20.3176 13.5458 20.3176 13.0255C20.3176 12.5052 20.7462 12.0833 21.2747 12.0833C21.8033 12.0833 22.2319 12.5052 22.2319 13.0255ZM24.9497 13.9817C24.889 12.7196 24.5962 11.6017 23.6569 10.6806C22.7212 9.75947 21.5855 9.47119 20.3033 9.40791C18.9819 9.33408 15.0212 9.33408 13.6997 9.40791C12.4212 9.46768 11.2855 9.75596 10.3462 10.677C9.40689 11.5981 9.11761 12.7161 9.05332 13.9782C8.97832 15.279 8.97832 19.1778 9.05332 20.4786C9.11403 21.7407 9.40689 22.8587 10.3462 23.7798C11.2855 24.7009 12.4176 24.9892 13.6997 25.0524C15.0212 25.1263 18.9819 25.1263 20.3033 25.0524C21.5855 24.9927 22.7212 24.7044 23.6569 23.7798C24.5926 22.8587 24.8855 21.7407 24.9497 20.4786C25.0247 19.1778 25.0247 15.2825 24.9497 13.9817ZM23.2426 21.8743C22.964 22.5634 22.4247 23.0942 21.7212 23.372C20.6676 23.7833 18.1676 23.6884 17.0033 23.6884C15.839 23.6884 13.3355 23.7798 12.2855 23.372C11.5855 23.0977 11.0462 22.5669 10.764 21.8743C10.3462 20.8372 10.4426 18.3763 10.4426 17.2302C10.4426 16.0841 10.3497 13.6196 10.764 12.586C11.0426 11.897 11.5819 11.3661 12.2855 11.0884C13.339 10.677 15.839 10.772 17.0033 10.772C18.1676 10.772 20.6712 10.6806 21.7212 11.0884C22.4212 11.3626 22.9605 11.8935 23.2426 12.586C23.6605 13.6231 23.564 16.0841 23.564 17.2302C23.564 18.3763 23.6605 20.8407 23.2426 21.8743Z" fill="#0C2F4D"/>
</g>
<defs>
<clipPath id="clip0_50_4778">
<rect width="16" height="18" fill="white" transform="translate(9 8.2334)"/>
</clipPath>
</defs>
</svg>
