<svg width="34" height="35" viewBox="0 0 34 35" fill="none" xmlns="http://www.w3.org/2000/svg">
<rect y="0.233398" width="34" height="34" rx="17" fill="#F0F0F0"/>
<g clip-path="url(#clip0_50_4774)">
<path d="M12.6327 24.2334V14.1129H9.20239V24.2334H12.6327ZM10.918 12.7303C12.1142 12.7303 12.8588 11.9532 12.8588 10.982C12.8365 9.98896 12.1142 9.2334 10.9407 9.2334C9.76731 9.2334 9 9.98898 9 10.982C9 11.9532 9.7444 12.7303 10.8956 12.7303H10.9179H10.918ZM14.5313 24.2334H17.9617V18.5816C17.9617 18.2792 17.9839 17.977 18.0745 17.7608C18.3225 17.1564 18.8869 16.5305 19.8345 16.5305C21.0758 16.5305 21.5724 17.4586 21.5724 18.8191V24.2333H25.0025V18.4303C25.0025 15.3217 23.3101 13.8753 21.0532 13.8753C19.2027 13.8753 18.3902 14.8897 17.9388 15.5805H17.9617V14.1127H14.5314C14.5764 15.0624 14.5314 24.2332 14.5314 24.2332L14.5313 24.2334Z" fill="#0C2F4D"/>
</g>
<defs>
<clipPath id="clip0_50_4774">
<rect width="16" height="15" fill="white" transform="translate(9 9.2334)"/>
</clipPath>
</defs>
</svg>
