<svg width="34" height="35" viewBox="0 0 34 35" fill="none" xmlns="http://www.w3.org/2000/svg">
<rect y="0.233398" width="34" height="34" rx="17" fill="#F0F0F0"/>
<path d="M22.3335 11.667H11.6668C10.9335 11.667 10.3402 12.267 10.3402 13.0003L10.3335 21.0003C10.3335 21.7337 10.9335 22.3337 11.6668 22.3337H22.3335C23.0668 22.3337 23.6668 21.7337 23.6668 21.0003V13.0003C23.6668 12.267 23.0668 11.667 22.3335 11.667ZM22.0668 14.5003L17.3535 17.447C17.1402 17.5803 16.8602 17.5803 16.6468 17.447L11.9335 14.5003C11.8666 14.4628 11.8081 14.4121 11.7614 14.3513C11.7147 14.2905 11.6809 14.2208 11.6619 14.1466C11.6429 14.0723 11.6392 13.9949 11.6509 13.9192C11.6627 13.8434 11.6897 13.7709 11.7304 13.7059C11.771 13.6409 11.8244 13.5848 11.8873 13.541C11.9502 13.4972 12.0214 13.4667 12.0965 13.4512C12.1716 13.4357 12.249 13.4356 12.3241 13.451C12.3992 13.4663 12.4705 13.4967 12.5335 13.5403L17.0002 16.3337L21.4668 13.5403C21.5299 13.4967 21.6011 13.4663 21.6762 13.451C21.7513 13.4356 21.8287 13.4357 21.9038 13.4512C21.9789 13.4667 22.0501 13.4972 22.113 13.541C22.1759 13.5848 22.2293 13.6409 22.27 13.7059C22.3106 13.7709 22.3376 13.8434 22.3494 13.9192C22.3612 13.9949 22.3574 14.0723 22.3384 14.1466C22.3195 14.2208 22.2856 14.2905 22.2389 14.3513C22.1922 14.4121 22.1337 14.4628 22.0668 14.5003Z" fill="#0C2F4D"/>
</svg>
